<svg xmlns="http://www.w3.org/2000/svg" viewBox="0 0 1080 1920"><defs><style>.cls-1,.cls-3{isolation:isolate;}.cls-2{fill:#80ebff;}.cls-3{fill:#666;opacity:0.45;mix-blend-mode:multiply;}.cls-4{fill:#00bb28;}.cls-5{fill:#00a428;}.cls-6{fill:#afafaf;}</style></defs><title>cloudy-portrait</title><g class="cls-1"><g id="cloudy-portrait"><rect id="sky" class="cls-2" width="1080" height="1920"/><rect id="overlay" class="cls-3" width="1080" height="1920"/><path id="_3rd-col" data-name="3rd-col" class="cls-4" d="M1080,1920H416c67.23-105.19,307.4-451,664-463"/><path id="_2nd-col" data-name="2nd-col" class="cls-4" d="M0,1308.25C352,1338.83,675,1920,675,1920H0"/><path id="_1st-col" data-name="1st-col" class="cls-5" d="M1080,1920v-1s-.12-86,0-129c-149.54-75.37-357-154.25-573.19-150.36C300.08,1643.35,128.5,1699.94,0,1762.86V1920H1080"/><path id="grey-cloud" class="cls-6" d="M879.73,260.45a80,80,0,0,0-97.48-48.15,117.65,117.65,0,0,0-198-39.74,117.78,117.78,0,0,0-121.17,11.71,117.65,117.65,0,0,0-208.46,51.12A86.65,86.65,0,1,0,187.22,395a86.65,86.65,0,0,0,151.57,27,75.93,75.93,0,0,0,103.15-2.53,120,120,0,0,0,210.18,22.15,120,120,0,0,0,166.64-4.73,93.52,93.52,0,1,0,61-176.47Z"/></g></g></svg>