<svg xmlns="http://www.w3.org/2000/svg" viewBox="0 0 1920 1080"><defs><style>.cls-1,.cls-5{isolation:isolate;}.cls-2{fill:#80ebff;}.cls-3{fill:#00bb28;}.cls-4{fill:#00a428;}.cls-5{fill:#666;opacity:0.59;mix-blend-mode:multiply;}.cls-6{fill:#606060;}.cls-7{fill:#4557ff;}</style></defs><title>rain-paysage</title><g class="cls-1"><g id="rain-paysage"><rect id="sky" class="cls-2" width="1920" height="1080"/><path id="_3rd-col" data-name="3rd-col" class="cls-3" d="M1919.5,1080h-844c67.23-105.19,305.23-451.27,661.83-463.27,61.81-2.08,123.09,10.33,182.17,32.31"/><path id="_2nd-col" data-name="2nd-col" class="cls-3" d="M-.5,485A462,462,0,0,1,107.08,467.3c368-16,717.41,612.7,717.41,612.7H-.5"/><path id="_1st-col" data-name="1st-col" class="cls-4" d="M-.5,1080c94.88-79.24,430.75-340,934-349,505.81-9.09,986,349,986,349Z"/><rect id="overlay" class="cls-5" width="1920" height="1079"/><path id="dark-cloud" class="cls-6" d="M1586.73,232.45a80,80,0,0,0-97.48-48.15,117.65,117.65,0,0,0-198-39.74,117.78,117.78,0,0,0-121.17,11.71,117.65,117.65,0,0,0-208.46,51.12A86.65,86.65,0,1,0,894.22,367a86.65,86.65,0,0,0,151.57,27,75.93,75.93,0,0,0,103.15-2.53,120,120,0,0,0,210.18,22.15,120,120,0,0,0,166.64-4.73,93.52,93.52,0,1,0,61-176.47Z"/><g id="rain-2" data-name="rain"><path class="cls-7" d="M1156,540c.5,8.45,10.56,18.61,20.49,18,9.39-.59,17.12-10.59,17.52-17.52,1-17-19-40.94-19-40.94S1155,523.05,1156,540Z"/><path class="cls-7" d="M1251,586c.5,8.45,10.56,18.61,20.49,18,9.39-.59,17.12-10.59,17.52-17.52,1-17-19-40.94-19-40.94S1250,569.05,1251,586Z"/><path class="cls-7" d="M1349,627c.5,8.45,10.56,18.61,20.49,18,9.39-.59,17.12-10.59,17.52-17.52,1-17-19-40.94-19-40.94S1348,610.05,1349,627Z"/><path class="cls-7" d="M1195,656c.5,8.45,10.56,18.61,20.49,18,9.39-.59,17.12-10.59,17.52-17.52,1-17-19-40.94-19-40.94S1194,639.05,1195,656Z"/><path class="cls-7" d="M1295,699c.5,8.45,10.56,18.61,20.49,18,9.39-.59,17.12-10.59,17.52-17.52,1-17-19-40.94-19-40.94S1294,682.05,1295,699Z"/><path class="cls-7" d="M1062,496c.5,8.45,10.56,18.61,20.49,18,9.39-.59,17.12-10.59,17.52-17.52,1-17-19-40.94-19-40.94S1061,479.05,1062,496Z"/><path class="cls-7" d="M1057,591c.5,8.45,10.56,18.61,20.49,18,9.39-.59,17.12-10.59,17.52-17.52,1-17-19-40.94-19-40.94S1056,574.05,1057,591Z"/><path class="cls-7" d="M1116,659c.5,8.45,10.56,18.61,20.49,18,9.39-.59,17.12-10.59,17.52-17.52,1-17-19-40.94-19-40.94S1115,642.05,1116,659Z"/><path class="cls-7" d="M1349,557c.5,8.45,10.56,18.61,20.49,18,9.39-.59,17.12-10.59,17.52-17.52,1-17-19-40.94-19-40.94S1348,540.05,1349,557Z"/></g></g></g></svg>