<svg xmlns="http://www.w3.org/2000/svg" viewBox="0 0 1080 1920"><defs><style>.cls-1,.cls-3{isolation:isolate;}.cls-2{fill:#80ebff;}.cls-3{fill:#666;opacity:0.45;mix-blend-mode:multiply;}.cls-4{fill:#00bb28;}.cls-5{fill:#00a428;}.cls-6{fill:#afafaf;}.cls-7{fill:#fff;}</style></defs><title>snow-portrait</title><g class="cls-1"><g id="snow-portrait"><rect id="sky" class="cls-2" width="1080" height="1920"/><rect id="overlay" class="cls-3" width="1080" height="1920"/><path id="_3rd-col" data-name="3rd-col" class="cls-4" d="M1080,1920H416c67.23-105.19,307.4-451,664-463"/><path id="_2nd-col" data-name="2nd-col" class="cls-4" d="M0,1308.25C352,1338.83,675,1920,675,1920H0"/><path id="_1st-col" data-name="1st-col" class="cls-5" d="M1080,1920v-1s-.12-86,0-129c-149.54-75.37-357-154.25-573.19-150.36C300.08,1643.35,128.5,1699.94,0,1762.86V1920H1080"/><path id="grey-cloud" class="cls-6" d="M879.73,260.45a80,80,0,0,0-97.48-48.15,117.65,117.65,0,0,0-198-39.74,117.78,117.78,0,0,0-121.17,11.71,117.65,117.65,0,0,0-208.46,51.12A86.65,86.65,0,1,0,187.22,395a86.65,86.65,0,0,0,151.57,27,75.93,75.93,0,0,0,103.15-2.53,120,120,0,0,0,210.18,22.15,120,120,0,0,0,166.64-4.73,93.52,93.52,0,1,0,61-176.47Z"/><g id="snow"><circle class="cls-7" cx="322" cy="486" r="16"/><circle class="cls-7" cx="398" cy="510" r="16"/><circle class="cls-7" cx="644" cy="547" r="16"/><circle class="cls-7" cx="556" cy="600" r="16"/><circle class="cls-7" cx="322" cy="584" r="16"/><circle class="cls-7" cx="764" cy="678" r="16"/><circle class="cls-7" cx="681" cy="615" r="16"/><circle class="cls-7" cx="403" cy="615" r="16"/><circle class="cls-7" cx="523" cy="705" r="16"/><circle class="cls-7" cx="256" cy="705" r="16"/><circle class="cls-7" cx="853" cy="609" r="16"/><circle class="cls-7" cx="676" cy="721" r="16"/><circle class="cls-7" cx="596" cy="760" r="16"/><circle class="cls-7" cx="370" cy="710" r="16"/><circle class="cls-7" cx="475" cy="547" r="16"/><circle class="cls-7" cx="757" cy="531" r="16"/><circle class="cls-7" cx="809" cy="805" r="16"/><circle class="cls-7" cx="697" cy="821" r="16"/><circle class="cls-7" cx="475" cy="810" r="16"/><circle class="cls-7" cx="539" cy="879" r="16"/><circle class="cls-7" cx="736" cy="927" r="16"/><circle class="cls-7" cx="331" cy="989" r="16"/><circle class="cls-7" cx="414" cy="926" r="16"/><circle class="cls-7" cx="660" cy="963" r="16"/><circle class="cls-7" cx="572" cy="1016" r="16"/><circle class="cls-7" cx="491" cy="963" r="16"/><circle class="cls-7" cx="779" cy="1005" r="16"/><circle class="cls-7" cx="280" cy="926" r="16"/><circle class="cls-7" cx="416" cy="1051" r="16"/><circle class="cls-7" cx="483" cy="1091" r="16"/><circle class="cls-7" cx="665" cy="1064" r="16"/><circle class="cls-7" cx="620" cy="858" r="16"/><circle class="cls-7" cx="363" cy="826" r="16"/><circle class="cls-7" cx="748" cy="1146" r="16"/><circle class="cls-7" cx="860" cy="1043" r="16"/><circle class="cls-7" cx="414" cy="1167" r="16"/><circle class="cls-7" cx="539" cy="1162" r="16"/><circle class="cls-7" cx="836" cy="1199" r="16"/><circle class="cls-7" cx="299" cy="1329" r="16"/><circle class="cls-7" cx="660" cy="1235" r="16"/><circle class="cls-7" cx="596" cy="1304" r="16"/><circle class="cls-7" cx="519" cy="1239" r="16"/><circle class="cls-7" cx="779" cy="1277" r="16"/><circle class="cls-7" cx="241" cy="1231" r="16"/><circle class="cls-7" cx="398" cy="1283" r="16"/><circle class="cls-7" cx="499" cy="1343" r="16"/><circle class="cls-7" cx="704" cy="1343" r="16"/><circle class="cls-7" cx="620" cy="1130" r="16"/><circle class="cls-7" cx="331" cy="1135" r="16"/><circle class="cls-7" cx="519" cy="1570" r="16"/><circle class="cls-7" cx="665" cy="1454" r="16"/><circle class="cls-7" cx="568" cy="1486" r="16"/><circle class="cls-7" cx="471" cy="1486" r="16"/><circle class="cls-7" cx="396" cy="1398" r="16"/><circle class="cls-7" cx="572" cy="1391" r="16"/><circle class="cls-7" cx="600" cy="1591" r="16"/><circle class="cls-7" cx="791.54" cy="1360.79" r="16"/><circle class="cls-7" cx="697.52" cy="1576.82" r="16"/><circle class="cls-7" cx="809.54" cy="1487.81" r="16"/><circle class="cls-7" cx="716.53" cy="1505.79" r="16"/></g><path id="neve" class="cls-7" d="M95,1329c-56.29,20.53-52.24,125.48-11.07,188.94,34,52.36,87.56,34.22,133-7.72,30.05-27.75,122,19.54,126.09-11.22.73-5.42-14-21-14-21s-65-61.34-137-103A656.09,656.09,0,0,0,95,1329Z"/><path id="neve-2" data-name="neve" class="cls-7" d="M750,1634c-5.76-10.92-1.68-30.35,15.78-49.83,17.11-19.08,39.46-37.05,47.22-53.17,29-16,84-38,84-38s60-22.2,81-23c16.33,22.21,27.77,88.29,51.79,132.52,26.91,49.56,48.16,88.71,37.21,99.48-15.23,15-131-62-163-66C871.6,1632,762.31,1657.34,750,1634Z"/><path id="neve-3" data-name="neve" class="cls-7" d="M760,1725c-5.51,14.48-43.77,17.75-47,18a92.33,92.33,0,0,1-21.53-.22c-16.93-2.07-24.28-7.93-38.47-3.78-31.88,9.32-29.34,49-53,53-29.4,5-43.6-54.51-89-58-6.91-.53-8.07.73-23.65,6.23-1.93.68-14.63,5-40.35,12.77-43.31,13.17-68.23-.51-95,14-39,21.16-30.05,74.07-49,76-27.46,2.79-69.19-167-4-181,14-3,20-4,38-7,16.06-2.68,23.31-3.22,34-5,24.84-3.5,46.5-5.77,64-7,21.22-1.5,42.11-2.52,63.65-3,10.91-.25,32.47-1,56.35,0,72,3,105,10,136,15C734.55,1662,766.31,1708.43,760,1725Z"/></g></g></svg>