<svg xmlns="http://www.w3.org/2000/svg" viewBox="0 0 1920 1080"><defs><style>.cls-1,.cls-3{isolation:isolate;}.cls-2{fill:#80ebff;}.cls-3{fill:#666;opacity:0.45;mix-blend-mode:multiply;}.cls-4{fill:#00bb28;}.cls-5{fill:#00a428;}.cls-6{fill:#fff;}.cls-7{fill:#afafaf;}</style></defs><title>snow-paysage</title><g class="cls-1"><g id="snow-paysage"><rect id="sky" class="cls-2" width="1920" height="1080"/><rect id="overlay" class="cls-3" width="1920" height="1080"/><path id="_3rd-col" data-name="3rd-col" class="cls-4" d="M1920,1080H1076c67.23-105.19,305.23-451.27,661.83-463.27,61.81-2.08,123.09,10.33,182.17,32.31"/><path id="_2nd-col" data-name="2nd-col" class="cls-4" d="M0,485A462,462,0,0,1,107.58,467.3C475.61,451.34,825,1080,825,1080H0"/><path class="cls-5" d="M933.5,731c-503.25,9-839.12,269.76-934,349h1920S1439.31,721.91,933.5,731Z"/><g id="snow-2" data-name="snow"><circle class="cls-6" cx="1040" cy="466" r="16"/><circle class="cls-6" cx="1123" cy="445" r="16"/><circle class="cls-6" cx="1369" cy="482" r="16"/><circle class="cls-6" cx="1281" cy="535" r="16"/><circle class="cls-6" cx="1084" cy="551" r="16"/><circle class="cls-6" cx="1489" cy="613" r="16"/><circle class="cls-6" cx="1406" cy="550" r="16"/><circle class="cls-6" cx="1160" cy="587" r="16"/><circle class="cls-6" cx="1248" cy="640" r="16"/><circle class="cls-6" cx="1329" cy="587" r="16"/><circle class="cls-6" cx="1041" cy="629" r="16"/><circle class="cls-6" cx="1489" cy="550" r="16"/><circle class="cls-6" cx="1401" cy="656" r="16"/><circle class="cls-6" cx="1321" cy="695" r="16"/><circle class="cls-6" cx="1155" cy="688" r="16"/><circle class="cls-6" cx="1200" cy="482" r="16"/><circle class="cls-6" cx="1482" cy="466" r="16"/></g><path id="grey-cloud" class="cls-7" d="M1586.73,232.45a80,80,0,0,0-97.48-48.15,117.65,117.65,0,0,0-198-39.74,117.78,117.78,0,0,0-121.17,11.71,117.65,117.65,0,0,0-208.46,51.12A86.65,86.65,0,1,0,894.22,367a86.65,86.65,0,0,0,151.57,27,75.93,75.93,0,0,0,103.15-2.53,120,120,0,0,0,210.18,22.15,120,120,0,0,0,166.64-4.73,93.52,93.52,0,1,0,61-176.47Z"/><path id="neve" class="cls-6" d="M1518,749c-5.76-10.92-1.68-30.35,15.78-49.83,17.11-19.08,39.46-39,47.22-55.17a569.68,569.68,0,0,1,153-27,873.26,873.26,0,0,1,63.79,100.52C1824.7,767.08,1846,806.23,1835,817c-15.23,15-131-62-163-66C1639.6,747,1530.31,772.34,1518,749Z"/><path id="neve-2" data-name="neve" class="cls-6" d="M67,471c-47.9,36-6.83,118.23,51,167,47.71,40.24,93.72,7.31,125-46,20.7-35.28,101.63-18.45,96.64-49.08-.88-5.4-4.16-9-7.64-12.92,0,0-71-44-153-58C111.1,460.41,67,471,67,471Z"/><path id="neve-3" data-name="neve" class="cls-6" d="M1085.49,738.73c10.56,1.21,20.29,2.34,33.51,4.27,20.26,3,43,7,43,7h0c20.88,8.33,25.36,14.1,25,18-.9,9.87-33,10.07-37,26-2.38,9.49,7.83,14.08,5,23-4.76,15-38.51,17.27-47,18-34.21,2.93-40.93-9.57-60-4-31.88,9.32-29.34,49-53,53-29.4,5-43.6-54.51-89-58-6.91-.53-8.07.73-23.65,6.23-1.93.68-14.63,4.95-40.35,12.77-43.31,13.17-68.23-.51-95,14-39,21.16-30,74.07-49,76-27.46,2.79-88.75-104-47-156,16.63-20.71,42-24,60-27,18.89-3.15,38.55-6.33,59-9q30-3.93,58.11-6.35C887.84,731.38,934.57,731,953,731s41,.06,71,2C1050.28,734.7,1072.27,737.22,1085.49,738.73Z"/></g></g></svg>