<svg xmlns="http://www.w3.org/2000/svg" viewBox="0 0 1920 1080"><defs><style>.cls-1,.cls-5{isolation:isolate;}.cls-2{fill:#80ebff;}.cls-3{fill:#00bb28;}.cls-4{fill:#00a428;}.cls-5{fill:#666;opacity:0.59;mix-blend-mode:multiply;}.cls-6{fill:#f4ff2e;}.cls-7{fill:#606060;}</style></defs><title>stormy-paysage</title><g class="cls-1"><g id="stormy-paysage"><rect id="sky" class="cls-2" width="1920" height="1080"/><path id="_3rd-col" data-name="3rd-col" class="cls-3" d="M1919.5,1080h-844c67.23-105.19,305.23-451.27,661.83-463.27,61.81-2.08,123.09,10.33,182.17,32.31"/><path id="_2nd-col" data-name="2nd-col" class="cls-3" d="M-.5,485A462,462,0,0,1,107.08,467.3c368-16,717.41,612.7,717.41,612.7H-.5"/><path class="cls-4" d="M-.5,1080c94.88-79.24,430.75-340,934-349,505.81-9.09,986,349,986,349Z"/><rect id="overlay" class="cls-5" width="1920" height="1079"/><polygon id="lightning" class="cls-6" points="1196.33 421.32 1126.7 584.36 1196.33 584.36 1125 744 1277 550.39 1201.42 550.39 1264.26 421.32 1196.33 421.32"/><path id="dark-cloud" class="cls-7" d="M1586.73,232.45a80,80,0,0,0-97.48-48.15,117.65,117.65,0,0,0-198-39.74,117.78,117.78,0,0,0-121.17,11.71,117.65,117.65,0,0,0-208.46,51.12A86.65,86.65,0,1,0,894.22,367a86.65,86.65,0,0,0,151.57,27,75.93,75.93,0,0,0,103.15-2.53,120,120,0,0,0,210.18,22.15,120,120,0,0,0,166.64-4.73,93.52,93.52,0,1,0,61-176.47Z"/></g></g></svg>