<svg xmlns="http://www.w3.org/2000/svg" viewBox="0 0 1920 1080"><defs><style>.cls-1{fill:#80ebff;}.cls-2{fill:#00bb28;}.cls-3{fill:#00a428;}.cls-4{fill:#fcfc00;}.cls-5{fill:#4557ff;}.cls-6{fill:#fff;}</style></defs><title>sunrain-paysage</title><g id="sunrain-paysage"><rect id="sky" class="cls-1" width="1920" height="1080"/><path id="_3rd-col" data-name="3rd-col" class="cls-2" d="M1920,1080H1076c67.23-105.19,305.23-451.27,661.83-463.27,61.81-2.08,123.09,10.33,182.17,32.31"/><path id="_2st-col" data-name="2st-col" class="cls-2" d="M0,485A462,462,0,0,1,107.58,467.3C475.61,451.34,825,1080,825,1080H0"/><path id="_1st-col" data-name="1st-col" class="cls-3" d="M-.5,1080c94.88-79.24,430.75-340,934-349,505.81-9.09,986,349,986,349Z"/><circle id="sun" class="cls-4" cx="1320.5" cy="320.5" r="219.5"/><g id="rain-4" data-name="rain"><path class="cls-5" d="M962,551c.5,8.45,10.56,18.61,20.49,18,9.39-.59,17.12-10.59,17.52-17.52,1-17-19-40.94-19-40.94S961,534.05,962,551Z"/><path class="cls-5" d="M1057,597c.5,8.45,10.56,18.61,20.49,18,9.39-.59,17.12-10.59,17.52-17.52,1-17-19-40.94-19-40.94S1056,580.05,1057,597Z"/><path class="cls-5" d="M1155,638c.5,8.45,10.56,18.61,20.49,18,9.39-.59,17.12-10.59,17.52-17.52,1-17-19-40.94-19-40.94S1154,621.05,1155,638Z"/><path class="cls-5" d="M1001,667c.5,8.45,10.56,18.61,20.49,18,9.39-.59,17.12-10.59,17.52-17.52,1-17-19-40.94-19-40.94S1000,650.05,1001,667Z"/><path class="cls-5" d="M1101,710c.5,8.45,10.56,18.61,20.49,18,9.39-.59,17.12-10.59,17.52-17.52,1-17-19-40.94-19-40.94S1100,693.05,1101,710Z"/><path class="cls-5" d="M868,507c.5,8.45,10.56,18.61,20.49,18,9.39-.59,17.12-10.59,17.52-17.52,1-17-19-40.94-19-40.94S867,490.05,868,507Z"/><path class="cls-5" d="M863,602c.5,8.45,10.56,18.61,20.49,18,9.39-.59,17.12-10.59,17.52-17.52,1-17-19-40.94-19-40.94S862,585.05,863,602Z"/><path class="cls-5" d="M922,670c.5,8.45,10.56,18.61,20.49,18,9.39-.59,17.12-10.59,17.52-17.52,1-17-19-40.94-19-40.94S921,653.05,922,670Z"/><path class="cls-5" d="M1155,568c.5,8.45,10.56,18.61,20.49,18,9.39-.59,17.12-10.59,17.52-17.52,1-17-19-40.94-19-40.94S1154,551.05,1155,568Z"/></g><path id="white-cloud" class="cls-6" d="M1414.73,283.45a80,80,0,0,0-97.48-48.15,117.65,117.65,0,0,0-198-39.74,117.78,117.78,0,0,0-121.17,11.71,117.65,117.65,0,0,0-208.46,51.12A86.65,86.65,0,1,0,722.22,418a86.65,86.65,0,0,0,151.57,27,75.93,75.93,0,0,0,103.15-2.53,120,120,0,0,0,210.18,22.15,120,120,0,0,0,166.64-4.73,93.52,93.52,0,1,0,61-176.47Z"/></g></svg>